<svg width="18" height="18" viewBox="0 0 18 18" fill="none" xmlns="http://www.w3.org/2000/svg">
<path fill-rule="evenodd" clip-rule="evenodd" d="M12.8759 4.39163H13.0555C15.4169 4.39163 17.3334 6.26663 17.3334 8.56663V13.1666C17.3334 15.4666 15.4169 17.3333 13.0555 17.3333H4.94464C2.58324 17.3333 0.666748 15.4666 0.666748 13.1666V8.56663C0.666748 6.26663 2.58324 4.39163 4.94464 4.39163H5.12431C5.14142 3.39163 5.54355 2.45829 6.27079 1.75829C7.00659 1.04996 7.94772 0.691626 9.00864 0.666626C11.1305 0.666626 12.8502 2.33329 12.8759 4.39163ZM7.16916 2.64996C6.69003 3.11663 6.4248 3.73329 6.40769 4.39163H11.5925C11.5668 3.02496 10.4204 1.91663 9.00865 1.91663C8.34985 1.91663 7.66539 2.17496 7.16916 2.64996ZM12.2513 7.59996C12.6106 7.59996 12.8929 7.31662 12.8929 6.97496V6.00829C12.8929 5.66663 12.6106 5.38329 12.2513 5.38329C11.9005 5.38329 11.6096 5.66663 11.6096 6.00829V6.97496C11.6096 7.31662 11.9005 7.59996 12.2513 7.59996ZM6.31354 6.97496C6.31354 7.31663 6.0312 7.59996 5.67186 7.59996C5.32107 7.59996 5.03018 7.31663 5.03018 6.97496V6.00829C5.03018 5.66663 5.32107 5.38329 5.67186 5.38329C6.0312 5.38329 6.31354 5.66663 6.31354 6.00829V6.97496Z" fill="white"/>
</svg>
