<svg width="18" height="18" viewBox="0 0 18 18" fill="none" xmlns="http://www.w3.org/2000/svg">
<path d="M8.99151 0.666504C4.3915 0.666504 0.666504 4.39984 0.666504 8.99984C0.666504 13.5998 4.3915 17.3332 8.99151 17.3332C13.5998 17.3332 17.3332 13.5998 17.3332 8.99984C17.3332 4.39984 13.5998 0.666504 8.99151 0.666504ZM12.3332 12.3332C12.2561 12.4104 12.1645 12.4717 12.0637 12.5135C11.9629 12.5553 11.8548 12.5769 11.7457 12.5769C11.6365 12.5769 11.5285 12.5553 11.4277 12.5135C11.3268 12.4717 11.2353 12.4104 11.1582 12.3332L8.41651 9.5915C8.33777 9.51433 8.27512 9.42229 8.23221 9.32073C8.1893 9.21916 8.16696 9.11009 8.16651 8.99984V5.6665C8.16651 5.20817 8.54151 4.83317 8.99984 4.83317C9.45817 4.83317 9.83317 5.20817 9.83317 5.6665V8.65817L12.3332 11.1582C12.6582 11.4832 12.6582 12.0082 12.3332 12.3332Z" fill="#8A8AA0"/>
</svg>
