<svg width="20" height="20" viewBox="0 0 20 20" fill="none" xmlns="http://www.w3.org/2000/svg">
<g id="Bag - Bold 24px">
<g id="Bag 2">
<path id="Bag 2_2" fill-rule="evenodd" clip-rule="evenodd" d="M13.8756 5.39166H14.0553C16.4167 5.39166 18.3332 7.26666 18.3332 9.56666V14.1667C18.3332 16.4667 16.4167 18.3333 14.0553 18.3333H5.9444C3.583 18.3333 1.6665 16.4667 1.6665 14.1667V9.56666C1.6665 7.26666 3.583 5.39166 5.9444 5.39166H6.12407C6.14118 4.39166 6.5433 3.45832 7.27054 2.75832C8.00634 2.04999 8.94748 1.69166 10.0084 1.66666C12.1302 1.66666 13.8499 3.33332 13.8756 5.39166ZM8.16891 3.64999C7.68979 4.11666 7.42456 4.73332 7.40745 5.39166H12.5923C12.5666 4.02499 11.4201 2.91666 10.0084 2.91666C9.34961 2.91666 8.66515 3.17499 8.16891 3.64999ZM13.251 8.59999C13.6104 8.59999 13.8927 8.31665 13.8927 7.97499V7.00832C13.8927 6.66666 13.6104 6.38332 13.251 6.38332C12.9002 6.38332 12.6093 6.66666 12.6093 7.00832V7.97499C12.6093 8.31665 12.9002 8.59999 13.251 8.59999ZM7.3133 7.97499C7.3133 8.31666 7.03096 8.59999 6.67162 8.59999C6.32083 8.59999 6.02993 8.31666 6.02993 7.97499V7.00832C6.02993 6.66666 6.32083 6.38332 6.67162 6.38332C7.03096 6.38332 7.3133 6.66666 7.3133 7.00832V7.97499Z" fill="#5142FC"/>
</g>
</g>
</svg>
