<svg width="16" height="12" viewBox="0 0 16 12" fill="none" xmlns="http://www.w3.org/2000/svg">
<path fill-rule="evenodd" clip-rule="evenodd" d="M7.99998 4.20323C6.93597 4.20323 6.07117 5.00943 6.07117 6.00043C6.07117 6.99068 6.93597 7.79615 7.99998 7.79615C9.06399 7.79615 9.9296 6.99068 9.9296 6.00043C9.9296 5.00943 9.06399 4.20323 7.99998 4.20323M7.99992 8.91382C6.2743 8.91382 4.87109 7.6069 4.87109 6.00044C4.87109 4.39324 6.2743 3.08557 7.99992 3.08557C9.72553 3.08557 11.1295 4.39324 11.1295 6.00044C11.1295 7.6069 9.72553 8.91382 7.99992 8.91382" fill="#1F1F2C"/>
<mask id="mask0_862_4317" style="mask-type:alpha" maskUnits="userSpaceOnUse" x="0" y="0" width="16" height="12">
<path fill-rule="evenodd" clip-rule="evenodd" d="M0 0H16V12H0V0Z" fill="white"/>
</mask>
<g mask="url(#mask0_862_4317)">
<path fill-rule="evenodd" clip-rule="evenodd" d="M1.2558 5.99985C2.74381 9.06151 5.25023 10.8818 7.99985 10.8826C10.7495 10.8818 13.2559 9.06151 14.7439 5.99985C13.2559 2.93894 10.7495 1.11864 7.99985 1.11789C5.25103 1.11864 2.74381 2.93894 1.2558 5.99985V5.99985ZM8.00146 12.0001H7.99826H7.99746C4.68864 11.9979 1.71741 9.8378 0.0486004 6.22029C-0.0162001 6.07946 -0.0162001 5.92001 0.0486004 5.77918C1.71741 2.16242 4.68944 0.00234403 7.99746 0.000108698C7.99906 -0.000636412 7.99906 -0.000636412 7.99986 0.000108698C8.00146 -0.000636412 8.00146 -0.000636412 8.00226 0.000108698C11.3111 0.00234403 14.2823 2.16242 15.9511 5.77918C16.0167 5.92001 16.0167 6.07946 15.9511 6.22029C14.2831 9.8378 11.3111 11.9979 8.00226 12.0001H8.00146Z" fill="#1F1F2C"/>
</g>
</svg>
